<svg id="visual" viewBox="0 0 960 200" width="960" height="200" xmlns="http://www.w3.org/2000/svg" xmlns:xlink="http://www.w3.org/1999/xlink" version="1.1"><path d="M0 124L22.8 124.5C45.7 125 91.3 126 137 126C182.7 126 228.3 125 274 120.8C319.7 116.7 365.3 109.3 411.2 107.3C457 105.3 503 108.7 548.8 108.7C594.7 108.7 640.3 105.3 686 104.5C731.7 103.7 777.3 105.3 823 110.2C868.7 115 914.3 123 937.2 127L960 131L960 201L937.2 201C914.3 201 868.7 201 823 201C777.3 201 731.7 201 686 201C640.3 201 594.7 201 548.8 201C503 201 457 201 411.2 201C365.3 201 319.7 201 274 201C228.3 201 182.7 201 137 201C91.3 201 45.7 201 22.8 201L0 201Z" fill="#fa69b4"></path><path d="M0 136L22.8 138C45.7 140 91.3 144 137 142.2C182.7 140.3 228.3 132.7 274 132.5C319.7 132.3 365.3 139.7 411.2 143.7C457 147.7 503 148.3 548.8 147.7C594.7 147 640.3 145 686 145.2C731.7 145.3 777.3 147.7 823 147.3C868.7 147 914.3 144 937.2 142.5L960 141L960 201L937.2 201C914.3 201 868.7 201 823 201C777.3 201 731.7 201 686 201C640.3 201 594.7 201 548.8 201C503 201 457 201 411.2 201C365.3 201 319.7 201 274 201C228.3 201 182.7 201 137 201C91.3 201 45.7 201 22.8 201L0 201Z" fill="#ed45be"></path><path d="M0 160L22.8 157.3C45.7 154.7 91.3 149.3 137 147C182.7 144.7 228.3 145.3 274 143.8C319.7 142.3 365.3 138.7 411.2 137.5C457 136.3 503 137.7 548.8 138.2C594.7 138.7 640.3 138.3 686 138.2C731.7 138 777.3 138 823 139.7C868.7 141.3 914.3 144.7 937.2 146.3L960 148L960 201L937.2 201C914.3 201 868.7 201 823 201C777.3 201 731.7 201 686 201C640.3 201 594.7 201 548.8 201C503 201 457 201 411.2 201C365.3 201 319.7 201 274 201C228.3 201 182.7 201 137 201C91.3 201 45.7 201 22.8 201L0 201Z" fill="#d61acf"></path><path d="M0 163L22.8 163.5C45.7 164 91.3 165 137 164.3C182.7 163.7 228.3 161.3 274 162.2C319.7 163 365.3 167 411.2 167.7C457 168.3 503 165.7 548.8 164.2C594.7 162.7 640.3 162.3 686 161.5C731.7 160.7 777.3 159.3 823 157.8C868.7 156.3 914.3 154.7 937.2 153.8L960 153L960 201L937.2 201C914.3 201 868.7 201 823 201C777.3 201 731.7 201 686 201C640.3 201 594.7 201 548.8 201C503 201 457 201 411.2 201C365.3 201 319.7 201 274 201C228.3 201 182.7 201 137 201C91.3 201 45.7 201 22.8 201L0 201Z" fill="#af00e5"></path><path d="M0 177L22.8 178C45.7 179 91.3 181 137 179.7C182.7 178.3 228.3 173.7 274 172.7C319.7 171.7 365.3 174.3 411.2 174.5C457 174.7 503 172.3 548.8 172.3C594.7 172.3 640.3 174.7 686 174.5C731.7 174.3 777.3 171.7 823 171.8C868.7 172 914.3 175 937.2 176.5L960 178L960 201L937.2 201C914.3 201 868.7 201 823 201C777.3 201 731.7 201 686 201C640.3 201 594.7 201 548.8 201C503 201 457 201 411.2 201C365.3 201 319.7 201 274 201C228.3 201 182.7 201 137 201C91.3 201 45.7 201 22.8 201L0 201Z" fill="#6600ff"></path></svg>