<svg id="visual" viewBox="0 0 900 200" width="900" height="200" xmlns="http://www.w3.org/2000/svg" xmlns:xlink="http://www.w3.org/1999/xlink" version="1.1"><path d="M0 54L21.5 57.2C43 60.3 86 66.7 128.8 71.2C171.7 75.7 214.3 78.3 257.2 78.7C300 79 343 77 385.8 73.8C428.7 70.7 471.3 66.3 514.2 65.8C557 65.3 600 68.7 642.8 68.3C685.7 68 728.3 64 771.2 62.7C814 61.3 857 62.7 878.5 63.3L900 64L900 0L878.5 0C857 0 814 0 771.2 0C728.3 0 685.7 0 642.8 0C600 0 557 0 514.2 0C471.3 0 428.7 0 385.8 0C343 0 300 0 257.2 0C214.3 0 171.7 0 128.8 0C86 0 43 0 21.5 0L0 0Z" fill="#6600ff"></path><path d="M0 58L21.5 54.8C43 51.7 86 45.3 128.8 43C171.7 40.7 214.3 42.3 257.2 46.2C300 50 343 56 385.8 57.5C428.7 59 471.3 56 514.2 55C557 54 600 55 642.8 55.7C685.7 56.3 728.3 56.7 771.2 57.3C814 58 857 59 878.5 59.5L900 60L900 0L878.5 0C857 0 814 0 771.2 0C728.3 0 685.7 0 642.8 0C600 0 557 0 514.2 0C471.3 0 428.7 0 385.8 0C343 0 300 0 257.2 0C214.3 0 171.7 0 128.8 0C86 0 43 0 21.5 0L0 0Z" fill="#9200f2"></path><path d="M0 29L21.5 30.7C43 32.3 86 35.7 128.8 39C171.7 42.3 214.3 45.7 257.2 46.3C300 47 343 45 385.8 45.2C428.7 45.3 471.3 47.7 514.2 45.8C557 44 600 38 642.8 35.5C685.7 33 728.3 34 771.2 35.3C814 36.7 857 38.3 878.5 39.2L900 40L900 0L878.5 0C857 0 814 0 771.2 0C728.3 0 685.7 0 642.8 0C600 0 557 0 514.2 0C471.3 0 428.7 0 385.8 0C343 0 300 0 257.2 0C214.3 0 171.7 0 128.8 0C86 0 43 0 21.5 0L0 0Z" fill="#af00e5"></path><path d="M0 37L21.5 36.5C43 36 86 35 128.8 32C171.7 29 214.3 24 257.2 23.8C300 23.7 343 28.3 385.8 29C428.7 29.7 471.3 26.3 514.2 24.7C557 23 600 23 642.8 22.7C685.7 22.3 728.3 21.7 771.2 21.5C814 21.3 857 21.7 878.5 21.8L900 22L900 0L878.5 0C857 0 814 0 771.2 0C728.3 0 685.7 0 642.8 0C600 0 557 0 514.2 0C471.3 0 428.7 0 385.8 0C343 0 300 0 257.2 0C214.3 0 171.7 0 128.8 0C86 0 43 0 21.5 0L0 0Z" fill="#c507da"></path><path d="M0 8L21.5 10.3C43 12.7 86 17.3 128.8 19.3C171.7 21.3 214.3 20.7 257.2 19.2C300 17.7 343 15.3 385.8 13.3C428.7 11.3 471.3 9.7 514.2 11.2C557 12.7 600 17.3 642.8 17.3C685.7 17.3 728.3 12.7 771.2 12.5C814 12.3 857 16.7 878.5 18.8L900 21L900 0L878.5 0C857 0 814 0 771.2 0C728.3 0 685.7 0 642.8 0C600 0 557 0 514.2 0C471.3 0 428.7 0 385.8 0C343 0 300 0 257.2 0C214.3 0 171.7 0 128.8 0C86 0 43 0 21.5 0L0 0Z" fill="#d61acf"></path></svg>